<?xml version="1.0"?>
<svg xmlns="http://www.w3.org/2000/svg" viewBox="0 0 64 64" width="512" height="512"><g id="graduate-website-online-education"><path d="M11,45c-1.683,0-3,1.757-3,4s1.317,4,3,4,3-1.757,3-4S12.683,45,11,45Zm0,6c-.408,0-1-.779-1-2s.592-2,1-2,1,.779,1,2S11.408,51,11,51Z"/><path d="M61,2H3A1,1,0,0,0,2,3V60a1,1,0,0,0,1,1H61a1,1,0,0,0,1-1V3A1,1,0,0,0,61,2ZM60,59H4V12H60Zm0-49H4V4H60Z"/><path d="M52,42H45.9L44.37,27.25,48,25.53v2.65A3.01,3.01,0,0,0,46,31v3a1,1,0,0,0,1,1h4a1,1,0,0,0,1-1V31a3.01,3.01,0,0,0-2-2.82v-3.6l1.43-.68a1,1,0,0,0-.04-1.82l-19-8a.963.963,0,0,0-.78,0l-19,8a1,1,0,0,0-.04,1.82l7.06,3.35L18.1,42H11c-3.31,0-6,3.14-6,7s2.69,7,6,7H52a7,7,0,0,0,0-14ZM49,30a1,1,0,0,1,1,1v2H48V31A1,1,0,0,1,49,30ZM15.45,23.05,32,16.08,46.05,22H34.82a3,3,0,1,0,0,2H46.55L32,30.89ZM33,23a1,1,0,1,1-1-1A1,1,0,0,1,33,23ZM43.89,42H20.11l1.44-13.85L31.57,32.9a.974.974,0,0,0,.86,0l10.02-4.75ZM11,54c-2.21,0-4-2.24-4-5s1.79-5,4-5,4,2.24,4,5S13.21,54,11,54Zm34,0H15.19a7.811,7.811,0,0,0,0-10H45a5,5,0,0,1,0,10Zm7,0H49.89a6.979,6.979,0,0,0,0-10H52a5,5,0,0,1,0,10Z"/><circle cx="9" cy="7" r="2"/><circle cx="15" cy="7" r="2"/><circle cx="21" cy="7" r="2"/></g></svg>
